<mxfile host="app.diagrams.net" modified="2021-09-23T01:01:30.856Z" agent="5.0 (Windows NT 10.0; Win64; x64) AppleWebKit/537.36 (KHTML, like Gecko) Chrome/93.0.4577.82 Safari/537.36 Edg/93.0.961.52" etag="EGior_SvOdyFJtCvmX27" version="15.2.7" type="github">
  <diagram id="Qi181ilSzmn1dk1Nb8NO" name="第 1 页">
    <mxGraphModel dx="2777" dy="995" grid="1" gridSize="10" guides="1" tooltips="1" connect="1" arrows="1" fold="1" page="1" pageScale="1" pageWidth="1169" pageHeight="827" math="0" shadow="0">
      <root>
        <mxCell id="0" />
        <mxCell id="1" parent="0" />
        <mxCell id="bowVtqyJAtLdABrKM6QR-1" value="&lt;font style=&quot;font-size: 35px&quot;&gt;互联网&lt;br&gt;kafka&lt;/font&gt;" style="rounded=0;whiteSpace=wrap;html=1;fillColor=#cce5ff;strokeColor=#36393d;gradientColor=#ffffff;verticalAlign=top;strokeWidth=3;" vertex="1" parent="1">
          <mxGeometry y="100" width="750" height="560" as="geometry" />
        </mxCell>
        <mxCell id="bowVtqyJAtLdABrKM6QR-2" value="&lt;font style=&quot;font-size: 30px&quot;&gt;隔离网&lt;br&gt;kafka&lt;/font&gt;" style="rounded=0;whiteSpace=wrap;html=1;fillColor=#cce5ff;strokeColor=#36393d;gradientColor=#ffffff;verticalAlign=top;" vertex="1" parent="1">
          <mxGeometry x="770" y="100" width="540" height="560" as="geometry" />
        </mxCell>
        <mxCell id="bowVtqyJAtLdABrKM6QR-3" value="&lt;font style=&quot;font-size: 30px&quot;&gt;用户端&lt;br&gt;kafka&lt;/font&gt;" style="rounded=0;whiteSpace=wrap;html=1;fillColor=#cce5ff;strokeColor=#36393d;gradientColor=#ffffff;verticalAlign=top;" vertex="1" parent="1">
          <mxGeometry x="1374" y="100" width="586" height="560" as="geometry" />
        </mxCell>
        <mxCell id="bowVtqyJAtLdABrKM6QR-12" style="edgeStyle=orthogonalEdgeStyle;rounded=0;orthogonalLoop=1;jettySize=auto;html=1;exitX=1;exitY=0.5;exitDx=0;exitDy=0;entryX=0;entryY=0.5;entryDx=0;entryDy=0;strokeWidth=3;" edge="1" parent="1" source="bowVtqyJAtLdABrKM6QR-4" target="bowVtqyJAtLdABrKM6QR-11">
          <mxGeometry relative="1" as="geometry" />
        </mxCell>
        <mxCell id="bowVtqyJAtLdABrKM6QR-4" value="&lt;font style=&quot;font-size: 30px&quot;&gt;社媒网站A&lt;/font&gt;" style="rounded=0;whiteSpace=wrap;html=1;verticalAlign=middle;fillColor=#d5e8d4;strokeColor=#82b366;" vertex="1" parent="1">
          <mxGeometry x="30" y="230" width="190" height="60" as="geometry" />
        </mxCell>
        <mxCell id="bowVtqyJAtLdABrKM6QR-15" style="edgeStyle=orthogonalEdgeStyle;rounded=0;orthogonalLoop=1;jettySize=auto;html=1;exitX=1;exitY=0.5;exitDx=0;exitDy=0;entryX=0;entryY=0.5;entryDx=0;entryDy=0;strokeWidth=3;" edge="1" parent="1" source="bowVtqyJAtLdABrKM6QR-5" target="bowVtqyJAtLdABrKM6QR-11">
          <mxGeometry relative="1" as="geometry" />
        </mxCell>
        <mxCell id="bowVtqyJAtLdABrKM6QR-5" value="&lt;font style=&quot;font-size: 30px&quot;&gt;社媒网站B&lt;/font&gt;" style="rounded=0;whiteSpace=wrap;html=1;verticalAlign=middle;fillColor=#d5e8d4;strokeColor=#82b366;" vertex="1" parent="1">
          <mxGeometry x="30" y="310" width="190" height="60" as="geometry" />
        </mxCell>
        <mxCell id="bowVtqyJAtLdABrKM6QR-16" style="edgeStyle=orthogonalEdgeStyle;rounded=0;orthogonalLoop=1;jettySize=auto;html=1;exitX=1;exitY=0.5;exitDx=0;exitDy=0;entryX=0;entryY=0.5;entryDx=0;entryDy=0;strokeWidth=3;" edge="1" parent="1" source="bowVtqyJAtLdABrKM6QR-6" target="bowVtqyJAtLdABrKM6QR-11">
          <mxGeometry relative="1" as="geometry" />
        </mxCell>
        <mxCell id="bowVtqyJAtLdABrKM6QR-6" value="&lt;font style=&quot;font-size: 30px&quot;&gt;社媒网站X&lt;/font&gt;" style="rounded=0;whiteSpace=wrap;html=1;verticalAlign=middle;fillColor=#d5e8d4;strokeColor=#82b366;" vertex="1" parent="1">
          <mxGeometry x="30" y="560" width="190" height="60" as="geometry" />
        </mxCell>
        <mxCell id="bowVtqyJAtLdABrKM6QR-8" value="" style="endArrow=none;dashed=1;html=1;entryX=0.25;entryY=1;entryDx=0;entryDy=0;exitX=0.25;exitY=0;exitDx=0;exitDy=0;strokeWidth=3;" edge="1" parent="1">
          <mxGeometry width="50" height="50" relative="1" as="geometry">
            <mxPoint x="129.5" y="560" as="sourcePoint" />
            <mxPoint x="129.5" y="370" as="targetPoint" />
          </mxGeometry>
        </mxCell>
        <mxCell id="bowVtqyJAtLdABrKM6QR-9" value="" style="endArrow=none;dashed=1;html=1;entryX=0.25;entryY=1;entryDx=0;entryDy=0;exitX=0.25;exitY=0;exitDx=0;exitDy=0;strokeWidth=3;" edge="1" parent="1">
          <mxGeometry width="50" height="50" relative="1" as="geometry">
            <mxPoint x="119.5" y="560" as="sourcePoint" />
            <mxPoint x="119.5" y="370" as="targetPoint" />
          </mxGeometry>
        </mxCell>
        <mxCell id="bowVtqyJAtLdABrKM6QR-21" style="edgeStyle=orthogonalEdgeStyle;rounded=0;orthogonalLoop=1;jettySize=auto;html=1;exitX=1;exitY=0.5;exitDx=0;exitDy=0;entryX=0;entryY=0.5;entryDx=0;entryDy=0;strokeWidth=3;" edge="1" parent="1" source="bowVtqyJAtLdABrKM6QR-11" target="bowVtqyJAtLdABrKM6QR-17">
          <mxGeometry relative="1" as="geometry" />
        </mxCell>
        <mxCell id="bowVtqyJAtLdABrKM6QR-11" value="&lt;font style=&quot;font-size: 30px&quot;&gt;服务端&lt;/font&gt;" style="rounded=0;whiteSpace=wrap;html=1;verticalAlign=middle;fillColor=#fff2cc;strokeColor=#d6b656;" vertex="1" parent="1">
          <mxGeometry x="310" y="390" width="190" height="60" as="geometry" />
        </mxCell>
        <mxCell id="bowVtqyJAtLdABrKM6QR-17" value="&lt;font style=&quot;font-size: 30px&quot;&gt;数据汇总&lt;/font&gt;" style="rounded=0;whiteSpace=wrap;html=1;verticalAlign=middle;fillColor=#d5e8d4;strokeColor=#82b366;" vertex="1" parent="1">
          <mxGeometry x="540" y="390" width="190" height="60" as="geometry" />
        </mxCell>
        <mxCell id="bowVtqyJAtLdABrKM6QR-24" value="" style="edgeStyle=orthogonalEdgeStyle;rounded=0;orthogonalLoop=1;jettySize=auto;html=1;strokeWidth=3;" edge="1" parent="1" source="bowVtqyJAtLdABrKM6QR-22" target="bowVtqyJAtLdABrKM6QR-17">
          <mxGeometry relative="1" as="geometry" />
        </mxCell>
        <mxCell id="bowVtqyJAtLdABrKM6QR-26" style="edgeStyle=orthogonalEdgeStyle;rounded=0;orthogonalLoop=1;jettySize=auto;html=1;exitX=1;exitY=0.5;exitDx=0;exitDy=0;entryX=0;entryY=0.5;entryDx=0;entryDy=0;strokeWidth=3;" edge="1" parent="1" source="bowVtqyJAtLdABrKM6QR-22" target="bowVtqyJAtLdABrKM6QR-25">
          <mxGeometry relative="1" as="geometry" />
        </mxCell>
        <mxCell id="bowVtqyJAtLdABrKM6QR-22" value="&lt;font style=&quot;font-size: 30px&quot;&gt;数据分析处理&lt;/font&gt;" style="rounded=0;whiteSpace=wrap;html=1;verticalAlign=middle;fillColor=#d5e8d4;strokeColor=#82b366;" vertex="1" parent="1">
          <mxGeometry x="820" y="390" width="200" height="60" as="geometry" />
        </mxCell>
        <mxCell id="bowVtqyJAtLdABrKM6QR-23" value="" style="shape=flexArrow;endArrow=classic;html=1;strokeWidth=3;width=20;endSize=8.62;entryX=0;entryY=0.5;entryDx=0;entryDy=0;exitX=1;exitY=0.5;exitDx=0;exitDy=0;endWidth=20.833333333333336;fillColor=#dae8fc;strokeColor=#6c8ebf;" edge="1" parent="1" source="bowVtqyJAtLdABrKM6QR-17" target="bowVtqyJAtLdABrKM6QR-22">
          <mxGeometry width="50" height="50" relative="1" as="geometry">
            <mxPoint x="790" y="370" as="sourcePoint" />
            <mxPoint x="820" y="330" as="targetPoint" />
          </mxGeometry>
        </mxCell>
        <mxCell id="bowVtqyJAtLdABrKM6QR-25" value="&lt;font style=&quot;font-size: 30px&quot;&gt;数据推送&lt;/font&gt;" style="rounded=0;whiteSpace=wrap;html=1;verticalAlign=middle;fillColor=#fff2cc;strokeColor=#d6b656;" vertex="1" parent="1">
          <mxGeometry x="1080" y="390" width="190" height="60" as="geometry" />
        </mxCell>
        <mxCell id="bowVtqyJAtLdABrKM6QR-32" style="edgeStyle=orthogonalEdgeStyle;rounded=0;orthogonalLoop=1;jettySize=auto;html=1;exitX=1;exitY=0.5;exitDx=0;exitDy=0;entryX=0;entryY=0.5;entryDx=0;entryDy=0;strokeWidth=3;" edge="1" parent="1" source="bowVtqyJAtLdABrKM6QR-27" target="bowVtqyJAtLdABrKM6QR-28">
          <mxGeometry relative="1" as="geometry" />
        </mxCell>
        <mxCell id="bowVtqyJAtLdABrKM6QR-33" style="edgeStyle=orthogonalEdgeStyle;rounded=0;orthogonalLoop=1;jettySize=auto;html=1;exitX=1;exitY=0.5;exitDx=0;exitDy=0;entryX=0;entryY=0.5;entryDx=0;entryDy=0;strokeWidth=3;" edge="1" parent="1" source="bowVtqyJAtLdABrKM6QR-27" target="bowVtqyJAtLdABrKM6QR-29">
          <mxGeometry relative="1" as="geometry" />
        </mxCell>
        <mxCell id="bowVtqyJAtLdABrKM6QR-34" style="edgeStyle=orthogonalEdgeStyle;rounded=0;orthogonalLoop=1;jettySize=auto;html=1;exitX=1;exitY=0.5;exitDx=0;exitDy=0;entryX=0;entryY=0.5;entryDx=0;entryDy=0;strokeWidth=3;" edge="1" parent="1" source="bowVtqyJAtLdABrKM6QR-27" target="bowVtqyJAtLdABrKM6QR-30">
          <mxGeometry relative="1" as="geometry" />
        </mxCell>
        <mxCell id="bowVtqyJAtLdABrKM6QR-35" style="edgeStyle=orthogonalEdgeStyle;rounded=0;orthogonalLoop=1;jettySize=auto;html=1;exitX=1;exitY=0.5;exitDx=0;exitDy=0;entryX=0;entryY=0.5;entryDx=0;entryDy=0;strokeWidth=3;" edge="1" parent="1" source="bowVtqyJAtLdABrKM6QR-27" target="bowVtqyJAtLdABrKM6QR-31">
          <mxGeometry relative="1" as="geometry" />
        </mxCell>
        <mxCell id="bowVtqyJAtLdABrKM6QR-27" value="&lt;span style=&quot;font-size: 30px&quot;&gt;客户端&lt;/span&gt;" style="rounded=0;whiteSpace=wrap;html=1;verticalAlign=middle;fillColor=#fff2cc;strokeColor=#d6b656;" vertex="1" parent="1">
          <mxGeometry x="1410" y="390" width="190" height="60" as="geometry" />
        </mxCell>
        <mxCell id="bowVtqyJAtLdABrKM6QR-28" value="&lt;font style=&quot;font-size: 30px&quot;&gt;用户A&lt;/font&gt;" style="rounded=0;whiteSpace=wrap;html=1;verticalAlign=middle;fillColor=#d5e8d4;strokeColor=#82b366;" vertex="1" parent="1">
          <mxGeometry x="1720" y="224" width="190" height="60" as="geometry" />
        </mxCell>
        <mxCell id="bowVtqyJAtLdABrKM6QR-29" value="&lt;font style=&quot;font-size: 30px&quot;&gt;用户B&lt;/font&gt;" style="rounded=0;whiteSpace=wrap;html=1;verticalAlign=middle;fillColor=#d5e8d4;strokeColor=#82b366;" vertex="1" parent="1">
          <mxGeometry x="1720" y="324" width="190" height="60" as="geometry" />
        </mxCell>
        <mxCell id="bowVtqyJAtLdABrKM6QR-30" value="&lt;font style=&quot;font-size: 30px&quot;&gt;用户C&lt;/font&gt;" style="rounded=0;whiteSpace=wrap;html=1;verticalAlign=middle;fillColor=#d5e8d4;strokeColor=#82b366;" vertex="1" parent="1">
          <mxGeometry x="1720" y="434" width="190" height="60" as="geometry" />
        </mxCell>
        <mxCell id="bowVtqyJAtLdABrKM6QR-31" value="&lt;font style=&quot;font-size: 30px&quot;&gt;用户D&lt;/font&gt;" style="rounded=0;whiteSpace=wrap;html=1;verticalAlign=middle;fillColor=#d5e8d4;strokeColor=#82b366;" vertex="1" parent="1">
          <mxGeometry x="1720" y="544" width="190" height="60" as="geometry" />
        </mxCell>
        <mxCell id="bowVtqyJAtLdABrKM6QR-36" value="" style="shape=flexArrow;endArrow=classic;html=1;strokeWidth=3;width=20;endSize=11.19;entryX=0;entryY=0.5;entryDx=0;entryDy=0;endWidth=33.72549019607843;fillColor=#dae8fc;strokeColor=#6c8ebf;exitX=1;exitY=0.5;exitDx=0;exitDy=0;" edge="1" parent="1" source="bowVtqyJAtLdABrKM6QR-25" target="bowVtqyJAtLdABrKM6QR-27">
          <mxGeometry width="50" height="50" relative="1" as="geometry">
            <mxPoint x="1030" y="530" as="sourcePoint" />
            <mxPoint x="1120" y="530" as="targetPoint" />
          </mxGeometry>
        </mxCell>
      </root>
    </mxGraphModel>
  </diagram>
</mxfile>
